# xmcd
#
# Track frame offsets:
#	150
#	12730
#	24636
#	43796
#	56910
#	70568
#	87147
#	99759
#	121235
#	136962
#	153490
#	183636
#	207393
#	226225
#	256025
#
# Disc length: 3785 seconds
#
# Revision: 1
# Processed by: cddbd v1.5.2PL0 Copyright (c) Steve Scherf et al.
# Submitted via: audiograbber 1.83.01
#
DISCID=c60ec70f
DTITLE=Ski King - Wild at heart
DYEAR=2014
DGENRE=Country
TTITLE0=Big River
TTITLE1=Blue Moon of Kentucky
TTITLE2=One Piece at Time
TTITLE3=Ways of a Women in love
TTITLE4=I walk the Line
TTITLE5=Folsom Prison Blues
TTITLE6=Bad Reputation
TTITLE7=Ski is still in the Sky
TTITLE8=Memphis Tennessee
TTITLE9=Cast be Satisfied
TTITLE10=John the Revelator
TTITLE11=Luckenbach Texas
TTITLE12=Paradis City
TTITLE13=Sympathy for the Devil
TTITLE14=Sweet Home Alabama
EXTD=
EXTT0=
EXTT1=
EXTT2=
EXTT3=
EXTT4=
EXTT5=
EXTT6=
EXTT7=
EXTT8=
EXTT9=
EXTT10=
EXTT11=
EXTT12=
EXTT13=
EXTT14=
PLAYORDER=
